<mxfile host="app.diagrams.net" agent="Mozilla/5.0 (Windows NT 10.0; Win64; x64) AppleWebKit/537.36 (KHTML, like Gecko) Chrome/128.0.0.0 Safari/537.36" version="24.7.13">
  <diagram name="Page-1" id="U1XVlD-uULaZfybkiWaf">
    <mxGraphModel dx="727" dy="472" grid="1" gridSize="10" guides="1" tooltips="1" connect="1" arrows="1" fold="1" page="1" pageScale="1" pageWidth="850" pageHeight="1100" math="0" shadow="0">
      <root>
        <mxCell id="0" />
        <mxCell id="1" parent="0" />
        <mxCell id="AyezRk7lid3wCaOTvy4F-2" value="" style="ellipse;whiteSpace=wrap;html=1;aspect=fixed;" vertex="1" parent="1">
          <mxGeometry x="170" y="190" width="110" height="110" as="geometry" />
        </mxCell>
        <mxCell id="AyezRk7lid3wCaOTvy4F-3" value="Idle/Sleep" style="text;html=1;align=center;verticalAlign=middle;whiteSpace=wrap;rounded=0;" vertex="1" parent="1">
          <mxGeometry x="195" y="230" width="60" height="30" as="geometry" />
        </mxCell>
        <mxCell id="AyezRk7lid3wCaOTvy4F-5" value="" style="ellipse;whiteSpace=wrap;html=1;aspect=fixed;" vertex="1" parent="1">
          <mxGeometry x="360" y="190" width="110" height="110" as="geometry" />
        </mxCell>
        <mxCell id="AyezRk7lid3wCaOTvy4F-6" value="" style="endArrow=classic;html=1;rounded=0;exitX=1;exitY=0.5;exitDx=0;exitDy=0;entryX=0;entryY=0.5;entryDx=0;entryDy=0;" edge="1" parent="1" source="AyezRk7lid3wCaOTvy4F-2" target="AyezRk7lid3wCaOTvy4F-5">
          <mxGeometry width="50" height="50" relative="1" as="geometry">
            <mxPoint x="310" y="290" as="sourcePoint" />
            <mxPoint x="360" y="240" as="targetPoint" />
          </mxGeometry>
        </mxCell>
        <mxCell id="AyezRk7lid3wCaOTvy4F-8" value="Every 8 seconds, we wake up" style="text;html=1;align=center;verticalAlign=middle;whiteSpace=wrap;rounded=0;" vertex="1" parent="1">
          <mxGeometry x="280" y="170" width="90" height="50" as="geometry" />
        </mxCell>
        <mxCell id="AyezRk7lid3wCaOTvy4F-9" value="Looking For Events" style="text;html=1;align=center;verticalAlign=middle;whiteSpace=wrap;rounded=0;" vertex="1" parent="1">
          <mxGeometry x="385" y="230" width="65" height="30" as="geometry" />
        </mxCell>
        <mxCell id="AyezRk7lid3wCaOTvy4F-11" value="" style="curved=1;endArrow=classic;html=1;rounded=0;exitX=0.5;exitY=0;exitDx=0;exitDy=0;entryX=0.5;entryY=0;entryDx=0;entryDy=0;" edge="1" parent="1" source="AyezRk7lid3wCaOTvy4F-5" target="AyezRk7lid3wCaOTvy4F-2">
          <mxGeometry width="50" height="50" relative="1" as="geometry">
            <mxPoint x="410" y="170" as="sourcePoint" />
            <mxPoint x="460" y="120" as="targetPoint" />
            <Array as="points">
              <mxPoint x="460" y="170" />
              <mxPoint x="440" y="140" />
              <mxPoint x="430" y="120" />
              <mxPoint x="270" y="130" />
              <mxPoint x="250" y="140" />
            </Array>
          </mxGeometry>
        </mxCell>
        <mxCell id="AyezRk7lid3wCaOTvy4F-12" value="No upcoming events found" style="text;html=1;align=center;verticalAlign=middle;whiteSpace=wrap;rounded=0;" vertex="1" parent="1">
          <mxGeometry x="255" y="80" width="60" height="30" as="geometry" />
        </mxCell>
        <mxCell id="AyezRk7lid3wCaOTvy4F-14" value="" style="endArrow=classic;html=1;rounded=0;" edge="1" parent="1">
          <mxGeometry width="50" height="50" relative="1" as="geometry">
            <mxPoint x="470" y="250" as="sourcePoint" />
            <mxPoint x="520" y="200" as="targetPoint" />
          </mxGeometry>
        </mxCell>
        <mxCell id="AyezRk7lid3wCaOTvy4F-15" value="" style="ellipse;whiteSpace=wrap;html=1;aspect=fixed;" vertex="1" parent="1">
          <mxGeometry x="520" y="150" width="110" height="110" as="geometry" />
        </mxCell>
        <mxCell id="AyezRk7lid3wCaOTvy4F-16" value="found some events" style="text;html=1;align=center;verticalAlign=middle;whiteSpace=wrap;rounded=0;" vertex="1" parent="1">
          <mxGeometry x="470" y="250" width="60" height="30" as="geometry" />
        </mxCell>
        <mxCell id="AyezRk7lid3wCaOTvy4F-18" value="Process event" style="text;html=1;align=center;verticalAlign=middle;whiteSpace=wrap;rounded=0;" vertex="1" parent="1">
          <mxGeometry x="545" y="190" width="60" height="30" as="geometry" />
        </mxCell>
      </root>
    </mxGraphModel>
  </diagram>
</mxfile>
